<?xml version="1.0" encoding="utf-8"?>
<!-- Generator: Adobe Illustrator 16.0.0, SVG Export Plug-In . SVG Version: 6.00 Build 0)  -->
<!DOCTYPE svg PUBLIC "-//W3C//DTD SVG 1.1//EN" "http://www.w3.org/Graphics/SVG/1.1/DTD/svg11.dtd">
<svg version="1.1" id="Capa_1" xmlns="http://www.w3.org/2000/svg" xmlns:xlink="http://www.w3.org/1999/xlink" x="0px" y="0px"
	 width="800px" height="800px" viewBox="0 0 800 800" enable-background="new 0 0 800 800" xml:space="preserve">
<path fill="#03FBFB" d="M679.158,441.431H575.581c-16.831,0-31.071-14.241-31.071-31.073v-20.715
	c0-16.832,14.24-31.074,31.071-31.074h103.577c16.832,0,31.073,14.242,31.073,31.074v20.715
	C710.231,427.19,695.99,441.431,679.158,441.431"/>
<path fill="#03FBFB" d="M451.289,441.431H347.713c-16.831,0-31.073-14.241-31.073-31.073v-20.715
	c0-16.832,14.242-31.074,31.073-31.074h103.576c16.831,0,31.073,14.242,31.073,31.074v20.715
	C482.362,427.19,468.12,441.431,451.289,441.431"/>
<path fill="#03FBFB" d="M223.419,441.431H119.842c-18.125,0-31.072-14.241-31.072-31.073v-20.715
	c0-16.832,14.242-31.074,31.072-31.074h103.577c16.832,0,31.073,14.242,31.073,31.074v20.715
	C254.492,427.19,240.251,441.431,223.419,441.431"/>
<path fill="#03FBFB" d="M627.369,503.575H171.631c-23.305,0-41.431,18.127-41.431,41.433v103.576
	c0,23.305,18.126,41.432,41.431,41.432h455.738c23.307,0,41.432-18.127,41.432-41.432V545.008
	C668.801,521.702,649.381,503.575,627.369,503.575z M606.654,617.512c0,5.178-5.18,10.356-10.356,10.356H202.704
	c-5.179,0-10.356-5.18-10.356-10.356v-41.433c0-5.178,5.178-10.356,10.356-10.356h393.594c5.178,0,10.356,5.18,10.356,10.356
	V617.512z"/>
<path fill="#03FBFB" d="M627.369,109.985H171.631c-23.305,0-41.431,18.125-41.431,41.432v103.577
	c0,23.305,18.126,41.43,41.431,41.43h455.738c23.307,0,41.432-18.125,41.432-41.43V151.416
	C668.801,128.111,649.381,109.985,627.369,109.985z M606.654,223.919c0,5.179-5.18,10.356-10.356,10.356H202.704
	c-5.179,0-10.356-5.178-10.356-10.356v-41.432c0-5.178,5.178-10.357,10.356-10.357h393.594c5.178,0,10.356,5.18,10.356,10.357
	V223.919z"/>
</svg>
