<?xml version="1.0" encoding="utf-8"?>
<!-- Generator: Adobe Illustrator 16.0.0, SVG Export Plug-In . SVG Version: 6.00 Build 0)  -->
<!DOCTYPE svg PUBLIC "-//W3C//DTD SVG 1.1//EN" "http://www.w3.org/Graphics/SVG/1.1/DTD/svg11.dtd">
<svg version="1.1" id="Capa_1" xmlns="http://www.w3.org/2000/svg" xmlns:xlink="http://www.w3.org/1999/xlink" x="0px" y="0px"
	 width="800px" height="800px" viewBox="0 0 800 800" enable-background="new 0 0 800 800" xml:space="preserve">
<path fill="none" stroke="#03FBFB" stroke-width="60" stroke-linecap="round" d="M242.817,344.443
	c-6.142,17.377-9.483,36.077-9.483,55.557c0,92.047,74.619,166.667,166.667,166.667c92.046,0,166.666-74.62,166.666-166.667
	S492.046,233.334,400,233.334c-19.48,0-38.181,3.342-55.557,9.483"/>
<path fill="none" stroke="#03FBFB" stroke-width="60" stroke-linecap="round" d="M400,66.667v66.667"/>
<path fill="none" stroke="#03FBFB" stroke-width="60" stroke-linecap="round" d="M400,666.667v66.667"/>
<path fill="none" stroke="#03FBFB" stroke-width="60" stroke-linecap="round" d="M133.333,400H66.666"/>
<path fill="none" stroke="#03FBFB" stroke-width="60" stroke-linecap="round" d="M733.333,400h-66.667"/>
<path fill="none" stroke="#03FBFB" stroke-width="60" stroke-linecap="round" d="M659.26,140.756l-74.067,67.719"/>
<path fill="none" stroke="#03FBFB" stroke-width="60" stroke-linecap="round" d="M140.739,140.756l74.067,67.719"/>
<path fill="none" stroke="#03FBFB" stroke-width="60" stroke-linecap="round" d="M214.812,585.19l-74.075,74.073"/>
<path fill="none" stroke="#03FBFB" stroke-width="60" stroke-linecap="round" d="M659.26,659.244l-74.067-74.073"/>
</svg>
